<svg version="1.1" xmlns="http://www.w3.org/2000/svg" style="display: block;" viewBox="0 0 2048 2048" width="700" height="700" preserveAspectRatio="none">

<path transform="translate(0,0)" fill="rgb(48,32,19)" d="M 1060.43 352.426 C 1068.3 340.121 1072.26 324.964 1081.05 313.093 C 1091.64 298.8 1103.88 283.689 1117.19 271.786 C 1149.67 246.532 1191.69 227.024 1231.23 216.641 C 1259.69 209.167 1286.38 214.503 1310.46 230.022 C 1349.67 255.286 1371.11 283.916 1381.15 329.628 C 1386.71 354.949 1388.85 380.92 1385.41 406.947 C 1384.38 414.705 1379.18 427.409 1377.11 435.072 C 1368.35 467.477 1351.75 493.52 1333.77 521.374 C 1328.47 529.569 1322.45 539.667 1316.4 547.38 C 1309.3 556.44 1301.49 562.911 1295.29 573.045 C 1308.26 591.081 1313.54 605.872 1323.3 624.958 C 1337 650.14 1347.25 676.107 1357.27 702.887 C 1361.55 714.339 1375.53 728.408 1379.1 738.235 C 1389 765.437 1407.08 797.995 1415.68 824.661 C 1428.04 862.98 1418.61 911.485 1416.95 951.029 C 1414.63 965.866 1403.92 980.617 1395.97 993.234 C 1391.66 1000.08 1384.21 1016.2 1380.04 1021.26 C 1358.2 1047.8 1321.07 1106.54 1289.01 1117.62 C 1298.66 1152.83 1330.45 1172.43 1345.61 1206.15 C 1348.33 1212.2 1359.33 1222.77 1362.95 1229.1 C 1371.67 1252.01 1379.38 1271.9 1393.46 1292.76 C 1399.32 1301.44 1402.44 1316.97 1406.9 1326.58 C 1411.64 1338.37 1426.47 1352.8 1430.02 1365.77 C 1444.16 1417.48 1448.19 1480.49 1449.32 1534.01 C 1449.7 1551.75 1444.36 1574.06 1445.6 1590.28 C 1476.36 1578.98 1493.96 1565.49 1512.65 1538.73 C 1517.83 1531.31 1525.85 1520.26 1529.39 1511.69 C 1533.87 1500.88 1540.66 1487.53 1544.33 1476.36 C 1551.4 1454.87 1555.92 1417.81 1578.94 1406.72 C 1579.95 1406.23 1585.87 1404.54 1587.19 1404.17 C 1623.19 1415.36 1628.46 1438.98 1632.37 1472.12 C 1636.82 1509.79 1631.05 1545.6 1619.46 1581.62 C 1602.3 1634.67 1558.77 1699.38 1508.08 1725.25 C 1479.19 1740 1425.5 1755.82 1393.15 1758.09 C 1382.54 1758.83 1365.18 1755.82 1354.68 1753.84 C 1331.4 1776.07 1298.44 1789.63 1270.34 1805.3 C 1265.03 1808.26 1226.35 1828.94 1221.65 1827.97 C 1208.08 1825.16 1206.74 1827.21 1193.28 1829.68 C 1183.57 1831.42 1173.79 1832.72 1163.96 1833.58 C 1150.66 1834.73 1136.66 1834.15 1123.29 1834.35 C 1091.03 1834.83 1059.59 1834.01 1027.9 1827.1 C 1015.26 1825.37 1004.98 1821.37 993.14 1819.15 C 969.592 1814.74 947.87 1810.45 924.809 1803.19 C 905.541 1796.51 884.26 1797.55 864.866 1793.46 C 832.465 1786.64 799.508 1780.69 767.535 1772.27 C 764.157 1794.68 754.525 1782.58 743.442 1788.61 C 719.812 1801.46 698.25 1816.41 669.619 1818.27 C 603.452 1822.58 525.251 1833.56 464.228 1801.59 C 446.609 1792.36 440.557 1779.86 435.815 1761.44 C 445.07 1721.18 473.887 1690.6 514.023 1680.18 C 525.326 1677.24 537.249 1676.88 548.084 1672.36 C 526.004 1657.15 502.458 1625.88 489.014 1602.58 C 482.647 1591.54 470.053 1550.98 469.225 1538.25 C 466.095 1490.14 473.997 1437.48 485.862 1390.89 C 489.659 1376.34 501.193 1359.24 504.21 1347.33 C 505.827 1340.94 501.661 1321.07 503.952 1309.36 C 512.495 1264.5 525.859 1221.6 543.653 1179.6 C 553.313 1156.8 555.755 1147.08 571.258 1127.34 C 564.163 1125.1 551.511 1121.09 545.143 1116.7 C 524.029 1102.13 502.505 1081.43 485.248 1062.4 C 479.81 1056.4 474.029 1047.04 468.385 1040.55 C 464.999 1036.66 452.355 1021.99 450.639 1018.63 C 440.087 997.979 426.619 964.804 421.033 942.454 C 413.849 913.708 412.966 866.805 418.159 837.685 C 420.614 823.917 430.671 806.718 436.003 793.859 C 441.781 779.921 446.218 765.997 453.158 752.554 C 456.044 746.963 466.097 735.584 467.919 731.056 C 473.963 716.043 479.878 701.441 486.712 686.71 C 492.025 675.259 498.878 664.583 504.112 653.328 C 508.157 644.63 511.177 632.051 515.334 623.36 C 520.073 613.452 526.68 603.644 531.58 593.661 C 536.899 582.823 540.467 571.016 546.764 560.776 C 510.688 521.359 491.572 476.714 481.247 425.126 C 472.417 381.013 469.92 349.079 488.672 305.697 C 503.921 270.421 533.932 234.914 568.971 217.731 C 598.443 205.066 641.307 223.345 668.356 236.214 C 703.964 253.157 740.696 283.759 767.149 313.244 C 775.124 322.258 783.465 338.944 787.629 350.077 C 790.357 351.712 789.599 351.137 793.841 350.142 C 798.563 348.5 804.079 346.614 808.463 344.447 C 843.941 326.75 881.072 323.198 919.926 321.745 C 965.019 320.059 997.725 325.825 1038.61 345.016 C 1045.56 347.76 1053.28 350.106 1060.43 352.426 z"/>
<path transform="translate(0,0)" fill="rgb(208,142,83)" d="M 793.841 350.142 C 798.563 348.5 804.079 346.614 808.463 344.447 C 843.941 326.75 881.072 323.198 919.926 321.745 C 965.019 320.059 997.725 325.825 1038.61 345.016 C 1030.18 345.188 1016.38 342.851 1008.01 341.197 C 946.508 329.054 884.035 331.346 822.893 344.455 C 815.021 346.143 801.198 350.465 793.841 350.142 z"/>
<path transform="translate(0,0)" fill="rgb(208,142,83)" d="M 924.809 1803.19 C 934.847 1802.65 942.602 1804.2 952.413 1804.77 C 962.333 1805.34 973.044 1805.15 983.036 1805.04 C 996.711 1815.16 1013.35 1818.52 1027.9 1827.1 C 1015.26 1825.37 1004.98 1821.37 993.14 1819.15 C 969.592 1814.74 947.87 1810.45 924.809 1803.19 z"/>
<path transform="translate(0,0)" fill="rgb(208,142,83)" d="M 736.268 1153.56 C 720.039 1151.15 707.324 1142.02 692.062 1137.05 C 675.991 1131.8 622.017 1125.35 612.577 1112.85 C 609.819 1109.19 606.187 1102.41 601.491 1100.94 C 600.019 1100.48 583.786 1101.97 576.959 1100.52 C 553.625 1095.58 521.653 1064.59 506.524 1045.84 C 501.269 1039.32 496.695 1032.29 491.323 1025.87 C 486.141 1019.67 479.843 1014.13 475.444 1007.34 C 469.143 997.602 464.798 986.571 460.563 975.823 C 445.244 936.947 437.616 897.392 442.363 855.463 C 444.698 834.846 454.419 819.834 462.176 801.174 C 466.964 789.658 470.447 777.353 476.505 766.415 C 481.168 757.996 487.701 750.55 491.984 741.959 C 497.427 731.043 501.04 719.123 506.22 708.045 C 512.975 693.6 521.247 679.693 527.625 665.128 C 531.854 655.473 534.789 645.187 539.301 635.682 C 544.74 624.226 552.592 613.934 558.375 602.636 C 563.05 593.503 565.953 583.316 570.973 574.413 C 575.943 565.6 584.651 559.774 589.935 551.272 C 595.754 541.91 599.441 531.256 605.51 521.981 C 611.031 513.545 618.762 507.113 625.139 499.412 C 629.121 494.604 631.395 488.609 635.239 483.742 C 639.522 478.32 645.916 473.524 650.923 468.678 C 658.11 461.724 664.5 454.013 672.354 447.763 C 693.894 430.622 716.506 413.137 740.936 400.358 C 787.946 375.767 856.38 361.708 909.445 359.928 C 932.379 359.159 954.655 360.845 977.418 363.52 C 1012.83 367.681 1071.66 378.95 1103.85 393.257 C 1117.49 399.32 1134.09 409.767 1143.59 421.384 C 1144.1 422 1144.57 422.64 1145.04 423.282 C 1148.2 423.844 1152.7 424.506 1155.62 425.417 C 1163.5 432.061 1167.27 441.287 1173.91 446.934 C 1187.71 458.152 1197.63 469.861 1208.55 483.8 C 1213.65 490.314 1221.04 496.306 1226.5 503.409 C 1246.22 529.095 1257.92 554.696 1271.99 583.274 C 1286.02 611.784 1303.03 640.026 1315.49 669.665 C 1328.62 699.144 1336.31 725.405 1355.9 751.764 C 1361.46 759.248 1366.56 780.847 1371.46 789.879 C 1383.96 817.288 1393.32 830.347 1395.02 862.277 C 1395.23 884.421 1394.82 928.801 1389.09 949.492 C 1385.51 962.383 1364.39 995.5 1355.93 1008.33 C 1346.78 1022.21 1326.09 1043.48 1316.58 1059.53 C 1309.74 1065.93 1294.37 1084.12 1286.98 1088.16 C 1265.61 1099.85 1242.95 1108.8 1221.01 1119.43 C 1178.02 1140.28 1133.92 1134.66 1091.97 1158.75 C 1091.68 1163.01 1091.24 1167.73 1091.13 1171.96 C 1095.61 1176.4 1098.13 1179.32 1104.96 1178.99 C 1115.57 1178.48 1126.4 1170.76 1136.58 1168.43 C 1148.18 1165.78 1160 1165.8 1171.68 1163 C 1194.57 1157.52 1216.78 1150.46 1238.52 1141.41 C 1246.73 1137.99 1255.16 1131.84 1263.23 1128.51 C 1275.18 1155.88 1283.75 1169.78 1305.06 1189.93 C 1310.54 1195.1 1316.41 1212.86 1321.31 1219.45 C 1326.19 1227.2 1335.23 1235.69 1339.71 1243.6 C 1344.54 1252.12 1347.71 1264.83 1352.02 1273.81 C 1357.48 1285.17 1365.85 1297.04 1371.16 1308.31 C 1376.62 1320 1380.18 1332.81 1385.92 1344.36 C 1392.35 1357 1402.25 1366.35 1406.37 1380.26 C 1413.22 1403.36 1414.27 1427.43 1417.47 1451.16 C 1419.19 1463.93 1418.37 1476.36 1419.48 1488.96 C 1421.3 1509.55 1422.99 1529.64 1421.79 1550.36 C 1419.69 1575.07 1413.73 1625.06 1405.56 1647.24 C 1393.18 1680.85 1349.61 1724.09 1321.09 1746.28 C 1309.53 1755.28 1278.3 1771.08 1264.09 1778.16 C 1257.77 1781.31 1254.8 1781.28 1248.19 1786.88 C 1243.19 1791.58 1196.37 1803.2 1187.16 1804.11 C 1139.76 1808.84 1079.04 1812.47 1032.87 1799.12 C 1020.88 1795.66 1000.4 1780.93 990.434 1773.44 C 1024.59 1736.1 1045.02 1729.86 1095.83 1729.1 C 1113.96 1728.83 1128.75 1728.01 1134.98 1708.32 L 1133.74 1707.5 C 1124.69 1701.53 1119.37 1701.04 1110.65 1696.74 C 1099.26 1691.12 1082.38 1681.75 1072.37 1673.95 C 1068.98 1671.31 1062.34 1661.03 1058.56 1657.02 C 1050.29 1648.25 1043.03 1643.44 1040.66 1630.4 C 1037.63 1613.81 1036.53 1584.95 1043.22 1568.94 C 1043.73 1567.72 1051.05 1558.65 1053.15 1554.67 C 1050.35 1551.82 1041.48 1541.59 1037.65 1542.15 C 1009.49 1546.89 1012.19 1593.32 1012.53 1614.51 C 1013.02 1644.48 1020.53 1656.61 1040.34 1677.84 C 1054.13 1692.62 1051.79 1694.18 1070.26 1705.46 C 1031.56 1706.32 1009.81 1716.02 981.152 1743.89 C 971.471 1753.3 964.768 1766.41 961.371 1779.49 C 913.705 1773.93 866.305 1767.33 819.571 1756.83 C 777.386 1747.35 735.083 1740.37 694.516 1724.98 C 688.238 1723.17 681.508 1719.77 675.294 1718.08 C 650.085 1711.2 628.232 1701.44 607.145 1685.78 C 602.747 1682.52 597.186 1671.55 594.727 1670.71 C 591.405 1669.56 580.572 1670.66 576.692 1666.65 C 572.536 1662.98 569.933 1657.36 565.479 1653.56 C 527.139 1620.81 499.932 1578.56 494.605 1527.66 C 493.355 1515.71 495.579 1503.44 496.286 1491.53 C 498.61 1456.69 503.631 1422.43 514.518 1389.13 C 518.107 1378.15 529.267 1362.28 531.492 1352.46 C 534.157 1340.69 527.458 1326.94 530.466 1311.46 C 540.538 1259.62 558.467 1209.95 580.477 1162.05 C 584.266 1153.8 590.882 1146.29 594.986 1138.66 C 615.602 1148.15 641.793 1153.77 663.988 1159.57 C 679.081 1163.51 725.741 1182.65 739.08 1178.51 C 743.08 1175.01 744.218 1171.67 746.504 1166.77 C 743.065 1160.9 741.585 1158.23 736.268 1153.56 z"/>
<path transform="translate(0,0)" fill="rgb(117,67,30)" d="M 1134.98 1708.32 L 1136.4 1708.79 C 1147.54 1712.35 1157.09 1711.41 1167.94 1713.78 C 1178.06 1716.17 1186.99 1721.35 1195.93 1726.24 C 1215.64 1737.02 1231.21 1749.98 1241.48 1770.28 C 1244.97 1777.18 1245.7 1779.82 1248.19 1786.88 C 1243.19 1791.58 1196.37 1803.2 1187.16 1804.11 C 1139.76 1808.84 1079.04 1812.47 1032.87 1799.12 C 1020.88 1795.66 1000.4 1780.93 990.434 1773.44 C 1024.59 1736.1 1045.02 1729.86 1095.83 1729.1 C 1113.96 1728.83 1128.75 1728.01 1134.98 1708.32 z"/>
<path transform="translate(0,0)" fill="rgb(48,32,19)" d="M 902.002 749.255 C 928.537 747.394 943.023 750.367 967.785 761.562 C 989.468 769.266 1010.22 797.63 1009.22 821.861 C 1007.36 866.808 967.429 894.27 935.503 919.328 C 928.612 924.737 930.018 938.418 930.178 946.02 C 974.721 993.878 1011.34 997.084 1049.95 940.262 C 1050.07 929.802 1052.66 909.383 1070.43 917.811 C 1076.92 920.888 1078.93 932.392 1080.44 939.163 C 1077.96 945.882 1075.09 950.296 1071.33 956.284 C 1040.29 1005.68 991.312 1026.4 938.995 991.233 C 930.725 984.987 924.247 977.643 916.313 970.936 C 913.4 973.986 908.185 978.673 904.453 980.764 C 884.284 992.063 860.956 1007.51 837.074 1001.86 C 811.957 995.929 787.665 981.636 773.919 959.58 C 771.947 955.699 761.248 940.104 763.602 936.165 C 778.695 910.913 793.187 940.835 798.7 948.552 C 801.755 952.824 805.423 956.622 809.586 959.824 C 821.588 969.163 834.594 973.324 848.796 977.835 C 861.957 973.883 882.028 965.368 891.558 955.247 C 902.424 943.708 901.527 932.117 901.27 917.748 C 894.216 910.369 894.026 906.721 889.923 901.871 C 882.405 894.929 870.056 887.138 861.466 882.032 C 826.456 861.221 801.9 826.989 829.739 788.005 C 842.71 769.841 857.045 762.125 878.612 755.788 C 886.452 753.485 893.416 750.766 902.002 749.255 z"/>
<path transform="translate(0,0)" fill="rgb(117,67,30)" d="M 998.798 1277.11 L 1010.4 1271.94 C 1016.55 1278.1 1017.93 1281.2 1021.78 1288.78 C 1030.25 1301.3 1040.01 1312.25 1049.49 1323.98 C 1053.62 1329.09 1061.49 1340.32 1065.81 1344.04 C 1078.93 1355.32 1090.27 1363.6 1103.02 1375.75 C 1114.34 1366.34 1138.18 1337.43 1152.24 1359.18 C 1155.4 1364.07 1153.61 1368.61 1152.21 1373.77 C 1084.24 1405.31 1078.55 1479.94 993.538 1507.38 C 970.578 1514.79 941.543 1514.32 919.855 1502.77 C 904.577 1494.64 897.56 1481.72 892.698 1465.84 C 889.091 1454.07 886.482 1441.83 887.783 1429.45 C 893.012 1379.7 951.17 1340.24 981.101 1304.44 C 988.209 1295.94 993.616 1286.87 998.798 1277.11 z"/>
<path transform="translate(0,0)" fill="rgb(48,32,19)" d="M 998.798 1277.11 L 1010.4 1271.94 C 1016.55 1278.1 1017.93 1281.2 1021.78 1288.78 C 1004.94 1351.56 880.44 1396.62 923.817 1470.99 C 927.769 1477.76 933.408 1480.53 940.87 1482.46 C 966.695 1489.17 988.085 1483.68 1010.58 1470.16 C 1040.63 1452.1 1054.6 1429.24 1076.11 1402.66 C 1084.32 1392.52 1091.96 1382.94 1103.02 1375.75 C 1114.34 1366.34 1138.18 1337.43 1152.24 1359.18 C 1155.4 1364.07 1153.61 1368.61 1152.21 1373.77 C 1084.24 1405.31 1078.55 1479.94 993.538 1507.38 C 970.578 1514.79 941.543 1514.32 919.855 1502.77 C 904.577 1494.64 897.56 1481.72 892.698 1465.84 C 889.091 1454.07 886.482 1441.83 887.783 1429.45 C 893.012 1379.7 951.17 1340.24 981.101 1304.44 C 988.209 1295.94 993.616 1286.87 998.798 1277.11 z"/>
<path transform="translate(0,0)" fill="rgb(117,67,30)" d="M 701.784 1283.52 C 702.101 1278.44 703.551 1274.66 707.839 1271.73 C 710.92 1269.59 714.773 1268.88 718.415 1269.78 C 723.595 1271.01 725.871 1274.69 728.548 1278.88 C 736.499 1288.44 739.823 1292.13 740.504 1304.98 C 743.939 1312.26 759.936 1325.11 766.291 1332.65 C 792.949 1364.29 817.353 1397.5 813.21 1440.97 C 812.485 1450.62 810.798 1456.39 810.007 1464.09 C 791.933 1484 773.204 1501.82 744.344 1504.11 C 716.543 1505.49 680.153 1487.52 660.463 1469.22 C 637.387 1447.78 619.304 1417.83 600.492 1392.63 C 587.962 1375.84 574.743 1360.92 569.112 1340.29 C 574.732 1334.08 577.378 1331.8 585.053 1327.67 C 596.825 1333.91 597.12 1335.85 601.263 1348.71 C 611.041 1338.05 619.969 1334.99 632.691 1331.4 C 644.636 1328.04 698.084 1291.17 701.784 1283.52 z"/>
<path transform="translate(0,0)" fill="rgb(48,32,19)" d="M 701.784 1283.52 C 702.101 1278.44 703.551 1274.66 707.839 1271.73 C 710.92 1269.59 714.773 1268.88 718.415 1269.78 C 723.595 1271.01 725.871 1274.69 728.548 1278.88 C 736.499 1288.44 739.823 1292.13 740.504 1304.98 C 743.939 1312.26 759.936 1325.11 766.291 1332.65 C 792.949 1364.29 817.353 1397.5 813.21 1440.97 C 812.485 1450.62 810.798 1456.39 810.007 1464.09 C 791.933 1484 773.204 1501.82 744.344 1504.11 C 716.543 1505.49 680.153 1487.52 660.463 1469.22 C 637.387 1447.78 619.304 1417.83 600.492 1392.63 C 587.962 1375.84 574.743 1360.92 569.112 1340.29 C 574.732 1334.08 577.378 1331.8 585.053 1327.67 C 596.825 1333.91 597.12 1335.85 601.263 1348.71 C 604.811 1356.67 612.725 1364.21 617.928 1371.28 C 637.501 1397.86 656.885 1431.03 681.709 1452.74 C 696.442 1465.62 725.667 1479.19 745.605 1477.38 C 754.39 1476.59 777.212 1462.33 782.612 1455.31 C 787.708 1448.67 787.435 1439.73 787.112 1431.78 C 784.298 1362.45 708.645 1337.13 701.784 1283.52 z"/>
<path transform="translate(0,0)" fill="rgb(117,67,30)" d="M 728.548 1278.88 C 736.499 1288.44 739.823 1292.13 740.504 1304.98 C 734.108 1298.99 727.701 1287.86 728.548 1278.88 z"/>
<path transform="translate(0,0)" fill="rgb(48,32,19)" d="M 711.873 676.141 C 725.577 675.093 738.767 677.825 748.774 687.571 C 762.518 700.958 785.623 742.735 783.994 761.788 C 780.412 803.662 752.589 855.202 704.75 854.349 C 693.723 854.497 682.73 854.275 673.438 848.273 C 629.75 820.052 621.624 768.403 650.017 725.756 C 667.713 699.176 681.585 685.007 711.873 676.141 z"/>
<path transform="translate(0,0)" fill="rgb(255,255,255)" d="M 732.043 716.45 L 742.186 717.163 C 759.237 732.326 760.304 750.797 735.823 756.597 C 727.344 758.753 718.474 750.022 713.873 743.953 C 713.702 738.733 713.705 733.233 713.63 727.987 C 720.011 719.941 721.59 716.705 732.043 716.45 z"/>
<path transform="translate(0,0)" fill="rgb(48,32,19)" d="M 1111.08 685.259 C 1122.37 683.991 1130.85 684.789 1140.82 691.074 C 1162.68 704.951 1187.7 719.505 1193.74 746.947 C 1202.85 788.271 1190.21 840.416 1143.68 851.259 C 1123.84 851.705 1115.01 851.853 1097.08 842.816 C 1082.06 834.906 1061.35 812.61 1058.34 795.64 C 1049.8 747.6 1058.29 699.385 1111.08 685.259 z"/>
<path transform="translate(0,0)" fill="rgb(255,255,255)" d="M 1133.44 717.131 C 1144.45 715.716 1147.83 719.359 1155.26 726.623 C 1156.09 730.358 1157.24 733.585 1158.44 737.209 C 1153.82 751.5 1151.02 754.817 1137.23 760.02 C 1121.05 764.674 1098.69 737.466 1133.44 717.131 z"/>
<path transform="translate(0,0)" fill="rgb(208,142,83)" d="M 1087.4 358.554 C 1092.79 347.719 1098.1 336.34 1104.93 326.463 C 1134.52 283.675 1179.77 260.596 1228 245.228 C 1248.51 238.694 1264.94 236.567 1284.88 246.898 C 1315.12 261.853 1341.35 286.2 1350.63 319.443 C 1357.18 342.911 1364.63 378.884 1359.04 403.003 C 1356.1 415.667 1344.35 451.411 1338.1 462.199 C 1323.26 487.778 1305.11 522.019 1284.61 542.866 C 1274.39 527.794 1263.27 512.199 1254.44 496.386 C 1246.12 483.617 1238.24 477.301 1229.19 466.066 C 1217.87 452.019 1208.94 442.939 1195.98 430.498 C 1187.97 422.808 1180.69 412.269 1172.27 403.837 C 1184.02 384.785 1225.54 345.186 1246.64 335.373 C 1253.53 332.17 1268.56 329.855 1276.4 326.788 C 1281.57 324.764 1282.35 321.239 1284.59 316.009 C 1280.12 307.061 1278.72 305.168 1269.45 301.109 C 1227.42 311.821 1214.74 319.15 1182.72 351.471 C 1168.2 366.13 1161.68 372.174 1148.95 389.473 C 1137.29 381.577 1126.66 374.165 1113.65 368.475 C 1105.04 364.708 1095.88 362.125 1087.4 358.554 z"/>
<path transform="translate(0,0)" fill="rgb(154,99,50)" d="M 1284.59 316.009 C 1317.06 359.008 1301.09 457.946 1259.85 493.487 C 1258.56 494.598 1256.02 495.723 1254.44 496.386 C 1246.12 483.617 1238.24 477.301 1229.19 466.066 C 1217.87 452.019 1208.94 442.939 1195.98 430.498 C 1187.97 422.808 1180.69 412.269 1172.27 403.837 C 1184.02 384.785 1225.54 345.186 1246.64 335.373 C 1253.53 332.17 1268.56 329.855 1276.4 326.788 C 1281.57 324.764 1282.35 321.239 1284.59 316.009 z"/>
<path transform="translate(0,0)" fill="rgb(208,142,83)" d="M 565.085 540.256 C 541.234 515.288 524.55 482.839 514.29 449.956 C 511.456 441.259 510.477 430.679 507.958 422.143 C 490.144 361.758 507.892 299.941 555.898 258.883 C 571.428 243.757 582.268 236.718 605.758 241.68 C 660.871 253.322 712.027 291.628 748.581 333.48 C 755.402 341.29 759.994 352.524 763.141 361.99 C 748.818 364.744 719.435 380.729 707.708 390.175 C 702.433 381.359 696.258 376.866 690.193 369.827 C 666.13 341.901 642.694 320.8 605.967 311.096 C 592.184 307.455 582.119 302.018 572.245 317.522 C 573.367 325.273 574.603 326.716 577.644 333.755 C 621.786 330.985 655.359 372.367 682.948 400.451 C 672.936 413.969 664.087 420.408 651.006 430.826 C 644.691 435.856 638.816 443.516 632.692 448.939 C 628.644 452.892 618.858 460.387 615.843 463.73 C 606.903 473.642 607.85 480.179 596.659 490.331 C 583.231 503.994 573.704 523.328 565.085 540.256 z"/>
<path transform="translate(0,0)" fill="rgb(154,99,50)" d="M 596.659 490.331 C 586.611 480.539 582.838 468.233 577.447 455.631 C 574.755 449.338 568.182 438.874 566.698 432.717 C 559.277 401.912 555.725 366.269 563.684 335.31 C 565.009 330.457 569.885 322.003 572.245 317.522 C 573.367 325.273 574.603 326.716 577.644 333.755 C 621.786 330.985 655.359 372.367 682.948 400.451 C 672.936 413.969 664.087 420.408 651.006 430.826 C 644.691 435.856 638.816 443.516 632.692 448.939 C 628.644 452.892 618.858 460.387 615.843 463.73 C 606.903 473.642 607.85 480.179 596.659 490.331 z"/>
<path transform="translate(0,0)" fill="rgb(117,67,30)" d="M 1587.86 1432.37 C 1596.77 1436.24 1603.52 1454.32 1604.75 1463.76 C 1613.19 1530.36 1594.66 1591.65 1556.7 1646.39 C 1518.08 1702.09 1461.03 1719.9 1397.76 1731.11 C 1391.06 1732.22 1383.51 1732.02 1376.64 1732.07 C 1401.4 1707.98 1421.27 1682.15 1433.26 1648.86 C 1435.14 1643.64 1438.26 1625.62 1439.47 1619.36 C 1444.24 1618.02 1448.99 1616.6 1453.72 1615.11 C 1514.65 1595.4 1546.54 1547.46 1568.47 1489.32 C 1576.23 1468.75 1577.05 1453.68 1587.86 1432.37 z"/>
<path transform="translate(0,0)" fill="rgb(117,67,30)" d="M 567.721 1697.4 L 569.007 1697.01 C 587.31 1701.3 614.701 1725.99 635.024 1733.52 C 650.29 1739.18 714.585 1757.19 723.367 1764.88 L 722.646 1767.62 C 718.551 1772.57 713.843 1774.27 708.405 1777.42 C 679.957 1793.93 651.747 1792.31 620.24 1795.67 C 579.509 1797.92 532.689 1797.94 493.579 1785.74 C 480.196 1781.57 458.393 1771.69 465.854 1754.03 C 476.491 1728.85 501.241 1708.2 528.525 1704.22 C 537.857 1702.71 560.437 1700.85 567.721 1697.4 z"/>
</svg>